<svg width="20" height="21" viewBox="0 0 20 21" fill="none" xmlns="http://www.w3.org/2000/svg">
<circle cx="10" cy="10.9629" r="9.25" fill="white" stroke="#CCCCCC" stroke-width="1.5"/>
<path d="M6.0472 15.7064H6.10254L8.66678 15.4727C8.94767 15.4448 9.21039 15.321 9.41083 15.1222L14.9452 9.58792C15.16 9.36099 15.276 9.05816 15.268 8.7458C15.2599 8.43343 15.1283 8.137 14.9021 7.92147L13.2172 6.23657C12.9973 6.03002 12.7092 5.9115 12.4076 5.90356C12.106 5.89563 11.812 5.99883 11.5815 6.19353L6.0472 11.7279C5.84843 11.9283 5.72467 12.191 5.69669 12.4719L5.43227 15.0361C5.42399 15.1262 5.43568 15.217 5.4665 15.302C5.49732 15.3871 5.54653 15.4643 5.6106 15.5281C5.66806 15.5851 5.7362 15.6302 5.81112 15.6608C5.88604 15.6914 5.96627 15.7069 6.0472 15.7064ZM12.3625 7.09747L14.0412 8.77621L12.8114 9.97532L11.1634 8.32732L12.3625 7.09747ZM6.88964 12.5764L10.3517 9.13902L12.012 10.7993L8.56839 14.2429L6.72361 14.4151L6.88964 12.5764Z" fill="#A1A1A1"/>
</svg>
