<svg width="16" height="16" viewBox="0 0 16 16" fill="none" xmlns="http://www.w3.org/2000/svg">
<path d="M15.1051 0.276611H0.894231C0.552475 0.276611 0.276367 0.552719 0.276367 0.894475V15.1053C0.276367 15.4471 0.552475 15.7232 0.894231 15.7232H15.1051C15.4468 15.7232 15.723 15.4471 15.723 15.1053V0.894475C15.723 0.552719 15.4468 0.276611 15.1051 0.276611ZM13.321 4.78508H12.0872C11.1199 4.78508 10.9326 5.24462 10.9326 5.92041V7.40907H13.2418L12.9406 9.73957H10.9326V15.7232H8.52484V9.74151H6.51099V7.40907H8.52484V5.69064C8.52484 3.6961 9.74319 2.60905 11.5234 2.60905C12.3768 2.60905 13.1086 2.67276 13.3229 2.70173V4.78508H13.321Z" fill="white"/>
</svg>
