<svg width="21" height="19" viewBox="0 0 21 19" fill="none" xmlns="http://www.w3.org/2000/svg">
<path d="M12.8772 18.2138C13.4787 18.2138 14.0556 17.9748 14.481 17.5494C14.9064 17.1241 15.1453 16.5472 15.1453 15.9456C15.1453 15.3441 14.9064 14.7672 14.481 14.3418C14.0556 13.9164 13.4787 13.6775 12.8772 13.6775C12.2756 13.6775 11.6987 13.9164 11.2734 14.3418C10.848 14.7672 10.609 15.3441 10.609 15.9456C10.609 16.5472 10.848 17.1241 11.2734 17.5494C11.6987 17.9748 12.2756 18.2138 12.8772 18.2138ZM4.93867 18.2138C5.54022 18.2138 6.11713 17.9748 6.54249 17.5494C6.96785 17.1241 7.20682 16.5472 7.20682 15.9456C7.20682 15.3441 6.96785 14.7672 6.54249 14.3418C6.11713 13.9164 5.54022 13.6775 4.93867 13.6775C4.33712 13.6775 3.76021 13.9164 3.33485 14.3418C2.90949 14.7672 2.67053 15.3441 2.67053 15.9456C2.67053 16.5472 2.90949 17.1241 3.33485 17.5494C3.76021 17.9748 4.33712 18.2138 4.93867 18.2138ZM19.7247 2.24942C20.0078 2.24029 20.2763 2.12141 20.4733 1.91792C20.6704 1.71442 20.7805 1.44227 20.7805 1.15901C20.7805 0.875759 20.6704 0.603607 20.4733 0.400113C20.2763 0.196618 20.0078 0.0777349 19.7247 0.0686035H18.4194C17.3965 0.0686035 16.5119 0.778533 16.2896 1.77652L14.8686 8.17495C14.6463 9.17294 13.7618 9.88287 12.7388 9.88287H4.21967L2.58434 3.33927H13.1822C13.4627 3.32647 13.7274 3.20606 13.9213 3.00307C14.1153 2.80009 14.2235 2.53016 14.2235 2.24942C14.2235 1.96869 14.1153 1.69876 13.9213 1.49577C13.7274 1.29279 13.4627 1.17238 13.1822 1.15958H2.58434C2.25281 1.15948 1.92562 1.23497 1.62765 1.38031C1.32968 1.52565 1.06876 1.73701 0.864742 1.99832C0.660719 2.25964 0.518959 2.56403 0.450239 2.88836C0.381519 3.21268 0.38765 3.54841 0.468161 3.87001L2.10349 10.4113C2.22138 10.8833 2.49371 11.3024 2.87717 11.6018C3.26062 11.9012 3.73317 12.0638 4.21967 12.0637H12.7388C13.7314 12.0638 14.6943 11.7254 15.4685 11.1044C16.2428 10.4833 16.782 9.61679 16.9973 8.64786L18.4194 2.24942H19.7247Z" fill="white"/>
</svg>
