<svg width="16" height="16" viewBox="0 0 16 16" fill="none" xmlns="http://www.w3.org/2000/svg">
<path d="M7.9996 5.39645C6.56601 5.39645 5.39609 6.56638 5.39609 7.99997C5.39609 9.43356 6.56601 10.6035 7.9996 10.6035C9.4332 10.6035 10.6031 9.43356 10.6031 7.99997C10.6031 6.56638 9.4332 5.39645 7.9996 5.39645ZM15.8082 7.99997C15.8082 6.92184 15.818 5.85349 15.7574 4.77731C15.6969 3.52731 15.4117 2.41794 14.4977 1.50388C13.5816 0.587861 12.4742 0.304658 11.2242 0.244111C10.1461 0.183564 9.07773 0.19333 8.00156 0.19333C6.92343 0.19333 5.85507 0.183564 4.7789 0.244111C3.5289 0.304658 2.41953 0.589814 1.50546 1.50388C0.589448 2.41989 0.306245 3.52731 0.245698 4.77731C0.185151 5.85544 0.194917 6.9238 0.194917 7.99997C0.194917 9.07614 0.185151 10.1465 0.245698 11.2226C0.306245 12.4726 0.591401 13.582 1.50546 14.4961C2.42148 15.4121 3.5289 15.6953 4.7789 15.7558C5.85703 15.8164 6.92539 15.8066 8.00156 15.8066C9.07968 15.8066 10.148 15.8164 11.2242 15.7558C12.4742 15.6953 13.5836 15.4101 14.4977 14.4961C15.4137 13.58 15.6969 12.4726 15.7574 11.2226C15.8199 10.1465 15.8082 9.07809 15.8082 7.99997ZM7.9996 12.0058C5.78281 12.0058 3.99375 10.2168 3.99375 7.99997C3.99375 5.78317 5.78281 3.99411 7.9996 3.99411C10.2164 3.99411 12.0055 5.78317 12.0055 7.99997C12.0055 10.2168 10.2164 12.0058 7.9996 12.0058ZM12.1695 4.76559C11.6519 4.76559 11.234 4.34763 11.234 3.83005C11.234 3.31247 11.6519 2.8945 12.1695 2.8945C12.6871 2.8945 13.1051 3.31247 13.1051 3.83005C13.1052 3.95295 13.0811 4.07467 13.0342 4.18825C12.9872 4.30182 12.9183 4.40502 12.8314 4.49192C12.7445 4.57883 12.6413 4.64773 12.5277 4.69469C12.4142 4.74166 12.2924 4.76575 12.1695 4.76559Z" fill="white"/>
</svg>
