<svg width="26" height="28" viewBox="0 0 26 28" fill="none" xmlns="http://www.w3.org/2000/svg">
<path d="M15.82 25.18L13 28L10.18 25.18C4.6375 23.9 0.5 18.93 0.5 13C0.5 6.1 6.1 0.5 13 0.5C19.9 0.5 25.5 6.1 25.5 13C25.5 18.93 21.3625 23.9 15.82 25.18ZM5.52875 17.27C7.36375 20.0075 10.1187 21.75 13.2 21.75C16.28 21.75 19.0362 20.0088 20.87 17.27C18.7897 15.3257 16.0474 14.246 13.2 14.25C10.3521 14.2457 7.60939 15.3255 5.52875 17.27ZM13 11.75C13.9946 11.75 14.9484 11.3549 15.6517 10.6517C16.3549 9.94839 16.75 8.99456 16.75 8C16.75 7.00544 16.3549 6.05161 15.6517 5.34835C14.9484 4.64509 13.9946 4.25 13 4.25C12.0054 4.25 11.0516 4.64509 10.3483 5.34835C9.64509 6.05161 9.25 7.00544 9.25 8C9.25 8.99456 9.64509 9.94839 10.3483 10.6517C11.0516 11.3549 12.0054 11.75 13 11.75Z" fill="white"/>
</svg>
