<svg width="26" height="26" viewBox="0 0 26 26" fill="none" xmlns="http://www.w3.org/2000/svg">
<path d="M12.9121 0.392334C6.10683 0.392334 0.570312 5.92885 0.570312 12.7341V17.8473C0.570312 19.1111 1.67737 20.1392 3.03867 20.1392H4.27284C4.60017 20.1392 4.91409 20.0091 5.14554 19.7777C5.37699 19.5462 5.50702 19.2323 5.50702 18.905V12.5576C5.50702 12.2303 5.37699 11.9164 5.14554 11.6849C4.91409 11.4535 4.60017 11.3234 4.27284 11.3234H3.15221C3.83841 6.54718 7.94823 2.86069 12.9121 2.86069C17.8759 2.86069 21.9858 6.54718 22.672 11.3234H21.5513C21.224 11.3234 20.9101 11.4535 20.6786 11.6849C20.4472 11.9164 20.3172 12.2303 20.3172 12.5576V20.1392C20.3172 21.5005 19.2101 22.6075 17.8488 22.6075H15.3804V21.3733H10.4437V25.0759H17.8488C20.5714 25.0759 22.7855 22.8618 22.7855 20.1392C24.1468 20.1392 25.2539 19.1111 25.2539 17.8473V12.7341C25.2539 5.92885 19.7173 0.392334 12.9121 0.392334Z" fill="white"/>
</svg>
