<svg width="26" height="26" viewBox="0 0 26 26" fill="none" xmlns="http://www.w3.org/2000/svg">
<path d="M25.2047 0.526402C25.1293 0.338567 24.9844 0.187041 24.8001 0.103346C24.6158 0.01965 24.4063 0.0102294 24.2152 0.0770437C24.0242 0.143858 23.8662 0.281763 23.7742 0.462069C23.6823 0.642375 23.6633 0.8512 23.7214 1.0451C24.9291 4.5161 22.5319 7.1083 20.7041 8.4967L19.9657 7.4385C19.7174 7.0836 19.1623 6.7885 18.7307 6.7833L14.5863 6.8015C14.08 6.81679 13.5873 6.96861 13.1602 7.2409L0.948006 15.804C0.663949 16.0039 0.470671 16.3082 0.410489 16.6503C0.350307 16.9924 0.428126 17.3444 0.626906 17.6292L6.17661 25.5696C6.59261 26.1611 7.25691 26.0896 7.84971 25.6762L20.0619 17.1118C20.4129 16.8635 20.8185 16.3279 20.9615 15.9184L22.2589 11.8299C22.4019 11.4217 22.3148 10.799 22.0665 10.4441L21.6167 9.7993C24.0711 7.9182 26.6191 4.5941 25.2047 0.526402ZM19.5224 12.6918C19.2974 12.8493 19.0436 12.9609 18.7755 13.0203C18.5074 13.0796 18.2302 13.0856 17.9597 13.0378C17.6893 12.9899 17.431 12.8893 17.1994 12.7416C16.9679 12.5939 16.7678 12.4021 16.6104 12.177C16.2918 11.7216 16.1669 11.1583 16.2632 10.6109C16.3595 10.0635 16.669 9.57662 17.1239 9.2572C17.4805 9.00736 17.9063 8.87519 18.3416 8.87915C18.777 8.88311 19.2003 9.02301 19.5523 9.2793C19.1987 9.4925 18.9556 9.6173 18.9101 9.6368C18.749 9.71364 18.6187 9.84293 18.5406 10.0035C18.4626 10.1641 18.4414 10.3464 18.4805 10.5206C18.5196 10.6948 18.6168 10.8505 18.756 10.9622C18.8952 11.074 19.0683 11.1352 19.2468 11.1357C19.3586 11.1357 19.473 11.1097 19.5809 11.059C19.8331 10.9394 20.1035 10.7977 20.3856 10.63C20.4505 11.0201 20.4039 11.4206 20.2512 11.7853C20.0985 12.1501 19.8459 12.4643 19.5224 12.6918Z" fill="white"/>
</svg>
